<svg width="39" height="39" viewBox="0 0 39 39" fill="none" xmlns="http://www.w3.org/2000/svg">
<g filter="url(#filter0_d_1_658)">
<g clip-path="url(#clip0_1_658)">
<rect width="34" height="34" rx="17" fill="black" fill-opacity="0.8" shape-rendering="crispEdges"/>
<circle cx="17" cy="17" r="11" fill="white"/>
<path d="M34 17C34 21.5087 32.2089 25.8327 29.0208 29.0208C25.8327 32.2089 21.5087 34 17 34C12.4913 34 8.1673 32.2089 4.97919 29.0208C1.79107 25.8327 0 21.5087 0 17C0 12.4913 1.79107 8.1673 4.97919 4.97919C8.1673 1.79107 12.4913 0 17 0C21.5087 0 25.8327 1.79107 29.0208 4.97919C32.2089 8.1673 34 12.4913 34 17ZM18.0625 9.5625C18.0625 9.28071 17.9506 9.01046 17.7513 8.8112C17.552 8.61194 17.2818 8.5 17 8.5C16.7182 8.5 16.448 8.61194 16.2487 8.8112C16.0494 9.01046 15.9375 9.28071 15.9375 9.5625V15.9375H9.5625C9.28071 15.9375 9.01046 16.0494 8.8112 16.2487C8.61194 16.448 8.5 16.7182 8.5 17C8.5 17.2818 8.61194 17.552 8.8112 17.7513C9.01046 17.9506 9.28071 18.0625 9.5625 18.0625H15.9375V24.4375C15.9375 24.7193 16.0494 24.9895 16.2487 25.1888C16.448 25.3881 16.7182 25.5 17 25.5C17.2818 25.5 17.552 25.3881 17.7513 25.1888C17.9506 24.9895 18.0625 24.7193 18.0625 24.4375V18.0625H24.4375C24.7193 18.0625 24.9895 17.9506 25.1888 17.7513C25.3881 17.552 25.5 17.2818 25.5 17C25.5 16.7182 25.3881 16.448 25.1888 16.2487C24.9895 16.0494 24.7193 15.9375 24.4375 15.9375H18.0625V9.5625Z" fill="black"/>
</g>
</g>
<defs>
<filter id="filter0_d_1_658" x="0" y="0" width="39" height="39" filterUnits="userSpaceOnUse" color-interpolation-filters="sRGB">
<feFlood flood-opacity="0" result="BackgroundImageFix"/>
<feColorMatrix in="SourceAlpha" type="matrix" values="0 0 0 0 0 0 0 0 0 0 0 0 0 0 0 0 0 0 127 0" result="hardAlpha"/>
<feOffset dx="4" dy="4"/>
<feGaussianBlur stdDeviation="0.5"/>
<feComposite in2="hardAlpha" operator="out"/>
<feColorMatrix type="matrix" values="0 0 0 0 0 0 0 0 0 0 0 0 0 0 0 0 0 0 0.13 0"/>
<feBlend mode="normal" in2="BackgroundImageFix" result="effect1_dropShadow_1_658"/>
<feBlend mode="normal" in="SourceGraphic" in2="effect1_dropShadow_1_658" result="shape"/>
</filter>
<clipPath id="clip0_1_658">
<rect width="34" height="34" rx="17" fill="white"/>
</clipPath>
</defs>
</svg>
